<svg width="512" height="512" viewBox="0 0 512 512" fill="none" xmlns="http://www.w3.org/2000/svg" xmlns:xlink="http://www.w3.org/1999/xlink" class="h-full w-full" id="iconWithBackground"><rect id="r4" width="512" height="512" x="0" y="0" rx="0" fill="[object Object]" stroke="#000000" stroke-width="0" stroke-opacity="100%" paint-order="stroke"></rect><defs><linearGradient id="linearGradient" gradientUnits="userSpaceOnUse" gradientTransform="rotate(0)" style="transform-origin: center center 0px;"><stop stop-color="#8e2de2"></stop><stop offset="1" stop-color="#4a00e0"></stop></linearGradient><radialGradient id="glare" cx="0" cy="0" r="1" gradientUnits="userSpaceOnUse" gradientTransform="translate(256) rotate(90) scale(512)"><stop stop-color="white"></stop><stop offset="1" stop-color="white" stop-opacity="0"></stop></radialGradient><clipPath id="clip"><use xlink:href="#r4"></use></clipPath></defs><svg xmlns="http://www.w3.org/2000/svg" xmlns:xlink="http://www.w3.org/1999/xlink" aria-hidden="true" role="img" x="4.5" y="4.5" class="iconify iconify--whh" style="color: rgb(215, 58, 66);" width="503" height="503" viewBox="0 0 1025 1025"><path fill="currentColor" d="M993 1025H801q-13 0-22.5-9.5T769 993V289q0-14 9.5-23t22.5-9h192q13 0 22.5 9t9.5 23v704q0 13-9.5 22.5T993 1025zm-320 0H481q-14 0-23-9.5t-9-22.5V545q0-14 9-23t23-9h192q13 0 22.5 9t9.5 23v448q0 13-9.5 22.5T673 1025zm0-704L561 209L117 564q-23 15-52.5 12.5t-48-21t-15-42.5T27 474l445-355l-87-87q0-13 9-22.5T417 0h256q13 0 22.5 9.5T705 32v257q0 13-9.5 22.5T673 321zM160 705h193q13 0 22.5 9.5T385 737v256q0 13-9.5 22.5T353 1025H160q-13 0-22.5-9.5T128 993V737q0-13 9.5-22.5T160 705z"></path></svg></svg>